<svg width="40" height="40" viewBox="0 0 40 40" fill="none" xmlns="http://www.w3.org/2000/svg">
<path opacity="0.201" d="M20 40C31.0457 40 40 31.0457 40 20C40 8.9543 31.0457 0 20 0C8.9543 0 0 8.9543 0 20C0 31.0457 8.9543 40 20 40Z" fill="black"/>
<path d="M20.4836 30C17.8466 30 15.2093 30 12.5717 30C10.9754 30 10 29.0042 10 27.3742C10 22.4608 10 17.5469 10 12.6325C10 10.9842 10.9762 10 12.6078 10H28.3906C30.0411 10 31 10.9833 31 12.6667C31 17.5678 31 22.4681 31 27.3675C31 29.0167 30.0271 29.9975 28.393 29.9983C25.756 29.9994 23.1195 30 20.4836 30ZM20.6542 27.7583C23.0463 27.7583 25.4383 27.765 27.8295 27.7467C28.0477 27.7467 28.3627 27.6392 28.4529 27.4775C28.5432 27.3158 28.4652 26.9833 28.3463 26.805C27.5358 25.5861 26.7073 24.38 25.8607 23.1867C25.4629 22.6233 24.887 22.5933 24.3842 23.0783C24.1159 23.3358 23.8633 23.61 23.6024 23.875C22.9265 24.5633 22.372 24.535 21.7977 23.7725C20.9389 22.64 20.0874 21.5025 19.231 20.3675C18.7987 19.795 18.3803 19.2108 17.925 18.6567C17.5436 18.1925 17.1047 18.2475 16.7946 18.76C16.7446 18.8433 16.7011 18.9267 16.6585 19.0158C15.4165 21.5158 14.1748 24.0158 12.9334 26.5158C12.8618 26.6492 12.8017 26.7886 12.7538 26.9325C12.6365 27.3267 12.8358 27.6625 13.2378 27.735C13.401 27.7561 13.5657 27.7625 13.73 27.7542C16.0367 27.7586 18.3448 27.7603 20.6542 27.7592V27.7583ZM21.3014 15.9067C21.301 16.3641 21.4338 16.8115 21.6832 17.1924C21.9326 17.5733 22.2873 17.8708 22.7028 18.0472C23.1183 18.2237 23.5759 18.2713 24.0179 18.184C24.4599 18.0967 24.8667 17.8785 25.1869 17.5568C25.5071 17.2352 25.7264 16.8244 25.8172 16.3763C25.908 15.9283 25.8662 15.4629 25.6971 15.0389C25.528 14.6149 25.2392 14.2512 24.8671 13.9937C24.4949 13.7362 24.056 13.5963 23.6057 13.5917C23.3044 13.5887 23.0054 13.6464 22.7261 13.7614C22.4469 13.8764 22.1928 14.0465 21.9785 14.2618C21.7643 14.4771 21.5942 14.7334 21.478 15.0159C21.3618 15.2983 21.3018 15.6014 21.3014 15.9075V15.9067Z" fill="white"/>
</svg>
